<svg xmlns="http://www.w3.org/2000/svg" width="1200" height="630" viewBox="0 0 1200 630">
  <defs>
    <linearGradient id="background" x1="0" y1="0" x2="1200" y2="630" gradientUnits="userSpaceOnUse">
      <stop stop-color="#1C151B"/>
      <stop offset="1" stop-color="#32212A"/>
    </linearGradient>
    <radialGradient id="glow" cx="0" cy="0" r="1" gradientTransform="translate(970 180) rotate(126) scale(410 520)" gradientUnits="userSpaceOnUse">
      <stop stop-color="#E65F43" stop-opacity=".28"/>
      <stop offset="1" stop-color="#E65F43" stop-opacity="0"/>
    </radialGradient>
    <filter id="shadow" x="-30%" y="-30%" width="160%" height="160%">
      <feDropShadow dx="0" dy="18" stdDeviation="18" flood-color="#0D090C" flood-opacity=".45"/>
    </filter>
  </defs>
  <rect width="1200" height="630" fill="url(#background)"/>
  <rect width="1200" height="630" fill="url(#glow)"/>
  <g filter="url(#shadow)" transform="translate(775 84) scale(1.45)">
    <path d="M72 18c21-8 42 2 51 19 18-6 35-2 49 10-14 1-24 7-31 18 13 2 23 9 30 20-20-6-35-3-47 8-11 17-35 24-56 16-23-9-37-31-31-54 5-19 18-31 35-37Z" fill="#E65F43"/>
    <path d="M111 37c23-7 41-3 57 10-17 2-30 10-38 24 14 0 26 5 36 14-23-5-41 0-54 15l-12-15 11-48Z" fill="#F6AD55"/>
    <path d="M64 29c19-8 42 1 51 20 10 21 1 46-19 56-22 10-48 1-58-20-10-22 1-47 26-56Z" fill="#FFF1CF" stroke="#3E2932" stroke-width="4"/>
    <path d="M57 61c4-3 8-3 12 0M87 58c4-3 8-3 12 0M66 77c7 8 16 8 24 0" fill="none" stroke="#3E2932" stroke-width="4" stroke-linecap="round"/>
  </g>
  <g filter="url(#shadow)" transform="translate(958 350) scale(.92)">
    <path d="M72 17c22-7 43 3 52 22 16-8 33-7 50 2-12 6-21 14-26 25 12 4 21 12 27 24-21-7-38-4-52 8-13 15-37 20-57 11-23-10-35-33-28-56 6-19 18-31 34-36Z" fill="#EB5C3F"/>
    <path d="M113 37c22-8 40-7 57 4-14 6-25 16-31 28 13 2 24 8 33 18-22-5-40-1-54 13l-14-14 9-49Z" fill="#FFC45E"/>
    <path d="M64 29c20-7 43 3 52 23 9 22-1 47-22 56-22 9-47-1-56-23-9-23 2-48 26-56Z" fill="#FFF1CF" stroke="#3E2932" stroke-width="4"/>
    <circle cx="62" cy="63" r="5" fill="#3E2932"/>
    <circle cx="96" cy="59" r="5" fill="#3E2932"/>
    <ellipse cx="80" cy="82" rx="8" ry="10" fill="#3E2932"/>
  </g>
  <g fill="#FFF1CF" font-family="Avenir Next, Noto Sans JP, sans-serif">
    <text x="78" y="255" font-size="92" font-weight="700" letter-spacing="-4">LefTonbo</text>
    <text x="84" y="327" fill="#F6AD55" font-size="38" font-weight="700" letter-spacing="5">レフとんぼ</text>
    <text x="82" y="437" font-size="48" font-weight="700" letter-spacing="-1">放浪するゲームクリエイター</text>
  </g>
  <rect x="80" y="493" width="132" height="8" rx="4" fill="#E65F43"/>
</svg>
